<mxfile host="app.diagrams.net" modified="2020-11-23T11:21:08.166Z" agent="5.0 (Windows NT 10.0; Win64; x64) AppleWebKit/537.36 (KHTML, like Gecko) Chrome/86.0.4240.111 Safari/537.36 Edg/86.0.622.51" etag="ADj2kqvKeVzhHLpt_pUv" version="13.6.5" type="github">
  <diagram id="s07GTh_8Bi-1gRjnJg62" name="Page-1">
    <mxGraphModel dx="1406" dy="1517" grid="0" gridSize="10" guides="1" tooltips="1" connect="1" arrows="1" fold="1" page="0" pageScale="1" pageWidth="827" pageHeight="1169" math="0" shadow="0">
      <root>
        <mxCell id="0" />
        <mxCell id="1" parent="0" />
        <mxCell id="-BSTJAo-Vo8OihBomsTJ-1" value="" style="rounded=0;whiteSpace=wrap;html=1;" parent="1" vertex="1">
          <mxGeometry x="-130" y="-485" width="124" height="202" as="geometry" />
        </mxCell>
        <mxCell id="-BSTJAo-Vo8OihBomsTJ-2" value="Pod A1" style="rounded=1;whiteSpace=wrap;html=1;" parent="1" vertex="1">
          <mxGeometry x="-112.5" y="-455" width="89" height="44" as="geometry" />
        </mxCell>
        <mxCell id="-BSTJAo-Vo8OihBomsTJ-3" value="Pod B1" style="rounded=1;whiteSpace=wrap;html=1;fillColor=#d5e8d4;strokeColor=#82b366;" parent="1" vertex="1">
          <mxGeometry x="-112.5" y="-370" width="89" height="44" as="geometry" />
        </mxCell>
        <mxCell id="-BSTJAo-Vo8OihBomsTJ-4" value="" style="rounded=0;whiteSpace=wrap;html=1;" parent="1" vertex="1">
          <mxGeometry x="17" y="-485" width="124" height="202" as="geometry" />
        </mxCell>
        <mxCell id="-BSTJAo-Vo8OihBomsTJ-5" value="Node 1" style="text;html=1;strokeColor=none;fillColor=none;align=center;verticalAlign=middle;whiteSpace=wrap;rounded=0;" parent="1" vertex="1">
          <mxGeometry x="-88" y="-509" width="45" height="20" as="geometry" />
        </mxCell>
        <mxCell id="-BSTJAo-Vo8OihBomsTJ-6" value="" style="rounded=1;whiteSpace=wrap;html=1;" parent="1" vertex="1">
          <mxGeometry x="45.5" y="-446" width="76" height="46" as="geometry" />
        </mxCell>
        <mxCell id="-BSTJAo-Vo8OihBomsTJ-7" value="" style="rounded=1;whiteSpace=wrap;html=1;" parent="1" vertex="1">
          <mxGeometry x="41.5" y="-450" width="76" height="46" as="geometry" />
        </mxCell>
        <mxCell id="-BSTJAo-Vo8OihBomsTJ-8" value="&lt;font color=&quot;#000000&quot;&gt;其他Pod&lt;/font&gt;" style="rounded=1;whiteSpace=wrap;html=1;" parent="1" vertex="1">
          <mxGeometry x="36.5" y="-455" width="76" height="46" as="geometry" />
        </mxCell>
        <mxCell id="-BSTJAo-Vo8OihBomsTJ-9" value="Node 2" style="text;html=1;strokeColor=none;fillColor=none;align=center;verticalAlign=middle;whiteSpace=wrap;rounded=0;" parent="1" vertex="1">
          <mxGeometry x="54" y="-509" width="45" height="20" as="geometry" />
        </mxCell>
        <mxCell id="-BSTJAo-Vo8OihBomsTJ-11" value="" style="rounded=0;whiteSpace=wrap;html=1;" parent="1" vertex="1">
          <mxGeometry x="243" y="-485" width="124" height="202" as="geometry" />
        </mxCell>
        <mxCell id="-BSTJAo-Vo8OihBomsTJ-12" value="Pod A1" style="rounded=1;whiteSpace=wrap;html=1;" parent="1" vertex="1">
          <mxGeometry x="260.5" y="-455" width="89" height="44" as="geometry" />
        </mxCell>
        <mxCell id="-BSTJAo-Vo8OihBomsTJ-13" value="Pod B1" style="rounded=1;whiteSpace=wrap;html=1;fillColor=#d5e8d4;strokeColor=#82b366;" parent="1" vertex="1">
          <mxGeometry x="260.5" y="-370" width="89" height="44" as="geometry" />
        </mxCell>
        <mxCell id="-BSTJAo-Vo8OihBomsTJ-14" value="" style="rounded=0;whiteSpace=wrap;html=1;" parent="1" vertex="1">
          <mxGeometry x="390" y="-485" width="124" height="202" as="geometry" />
        </mxCell>
        <mxCell id="-BSTJAo-Vo8OihBomsTJ-15" value="Node 1" style="text;html=1;strokeColor=none;fillColor=none;align=center;verticalAlign=middle;whiteSpace=wrap;rounded=0;" parent="1" vertex="1">
          <mxGeometry x="285" y="-509" width="45" height="20" as="geometry" />
        </mxCell>
        <mxCell id="-BSTJAo-Vo8OihBomsTJ-16" value="" style="rounded=1;whiteSpace=wrap;html=1;" parent="1" vertex="1">
          <mxGeometry x="418.5" y="-446" width="76" height="46" as="geometry" />
        </mxCell>
        <mxCell id="-BSTJAo-Vo8OihBomsTJ-17" value="" style="rounded=1;whiteSpace=wrap;html=1;" parent="1" vertex="1">
          <mxGeometry x="414.5" y="-450" width="76" height="46" as="geometry" />
        </mxCell>
        <mxCell id="-BSTJAo-Vo8OihBomsTJ-18" value="&lt;font color=&quot;#000000&quot;&gt;其他Pod&lt;/font&gt;" style="rounded=1;whiteSpace=wrap;html=1;" parent="1" vertex="1">
          <mxGeometry x="409.5" y="-455" width="76" height="46" as="geometry" />
        </mxCell>
        <mxCell id="-BSTJAo-Vo8OihBomsTJ-19" value="Node 2" style="text;html=1;strokeColor=none;fillColor=none;align=center;verticalAlign=middle;whiteSpace=wrap;rounded=0;" parent="1" vertex="1">
          <mxGeometry x="427" y="-509" width="45" height="20" as="geometry" />
        </mxCell>
        <mxCell id="-BSTJAo-Vo8OihBomsTJ-20" value="ReplicationController" style="rounded=0;whiteSpace=wrap;html=1;fillColor=#f8cecc;strokeColor=#b85450;" parent="1" vertex="1">
          <mxGeometry x="-88" y="-213" width="186" height="34" as="geometry" />
        </mxCell>
        <mxCell id="-BSTJAo-Vo8OihBomsTJ-21" value="" style="edgeStyle=elbowEdgeStyle;elbow=vertical;endArrow=classic;html=1;exitX=0.5;exitY=0;exitDx=0;exitDy=0;entryX=0.5;entryY=1;entryDx=0;entryDy=0;" parent="1" source="-BSTJAo-Vo8OihBomsTJ-20" target="-BSTJAo-Vo8OihBomsTJ-3" edge="1">
          <mxGeometry width="50" height="50" relative="1" as="geometry">
            <mxPoint x="174" y="-225" as="sourcePoint" />
            <mxPoint x="224" y="-275" as="targetPoint" />
          </mxGeometry>
        </mxCell>
        <mxCell id="-BSTJAo-Vo8OihBomsTJ-22" value="创建、管理" style="text;html=1;strokeColor=none;fillColor=none;align=center;verticalAlign=middle;whiteSpace=wrap;rounded=0;" parent="1" vertex="1">
          <mxGeometry x="-68" y="-259" width="69" height="20" as="geometry" />
        </mxCell>
        <mxCell id="-BSTJAo-Vo8OihBomsTJ-25" value="" style="shape=flexArrow;endArrow=classic;html=1;endWidth=9;endSize=5.89;" parent="1" edge="1">
          <mxGeometry width="50" height="50" relative="1" as="geometry">
            <mxPoint x="159" y="-390" as="sourcePoint" />
            <mxPoint x="226" y="-390" as="targetPoint" />
          </mxGeometry>
        </mxCell>
        <mxCell id="-BSTJAo-Vo8OihBomsTJ-28" value="Node 1故障" style="text;html=1;strokeColor=none;fillColor=none;align=center;verticalAlign=middle;whiteSpace=wrap;rounded=0;" parent="1" vertex="1">
          <mxGeometry x="155" y="-424" width="68" height="20" as="geometry" />
        </mxCell>
        <mxCell id="-BSTJAo-Vo8OihBomsTJ-29" value="ReplicationController" style="rounded=0;whiteSpace=wrap;html=1;fillColor=#f8cecc;strokeColor=#b85450;" parent="1" vertex="1">
          <mxGeometry x="285" y="-213" width="186" height="34" as="geometry" />
        </mxCell>
        <mxCell id="-BSTJAo-Vo8OihBomsTJ-31" value="Pod B2" style="rounded=1;whiteSpace=wrap;html=1;fillColor=#d5e8d4;strokeColor=#82b366;" parent="1" vertex="1">
          <mxGeometry x="408" y="-370" width="89" height="44" as="geometry" />
        </mxCell>
        <mxCell id="-BSTJAo-Vo8OihBomsTJ-32" value="" style="edgeStyle=elbowEdgeStyle;elbow=vertical;endArrow=classic;exitX=0.376;exitY=-0.039;exitDx=0;exitDy=0;entryX=0.5;entryY=1;entryDx=0;entryDy=0;html=1;labelBorderColor=none;dashed=1;exitPerimeter=0;" parent="1" source="-BSTJAo-Vo8OihBomsTJ-29" target="-BSTJAo-Vo8OihBomsTJ-13" edge="1">
          <mxGeometry width="50" height="50" relative="1" as="geometry">
            <mxPoint x="381" y="-218" as="sourcePoint" />
            <mxPoint x="409" y="-268" as="targetPoint" />
            <Array as="points">
              <mxPoint x="281" y="-240" />
            </Array>
          </mxGeometry>
        </mxCell>
        <mxCell id="-BSTJAo-Vo8OihBomsTJ-33" style="edgeStyle=orthogonalEdgeStyle;rounded=0;orthogonalLoop=1;jettySize=auto;html=1;exitX=0.5;exitY=1;exitDx=0;exitDy=0;" parent="1" source="-BSTJAo-Vo8OihBomsTJ-11" target="-BSTJAo-Vo8OihBomsTJ-11" edge="1">
          <mxGeometry relative="1" as="geometry" />
        </mxCell>
        <mxCell id="-BSTJAo-Vo8OihBomsTJ-34" value="" style="edgeStyle=elbowEdgeStyle;elbow=vertical;endArrow=classic;html=1;entryX=0.5;entryY=1;entryDx=0;entryDy=0;exitX=0.631;exitY=0.02;exitDx=0;exitDy=0;exitPerimeter=0;" parent="1" source="-BSTJAo-Vo8OihBomsTJ-29" target="-BSTJAo-Vo8OihBomsTJ-31" edge="1">
          <mxGeometry width="50" height="50" relative="1" as="geometry">
            <mxPoint x="402" y="-217" as="sourcePoint" />
            <mxPoint x="224" y="-296" as="targetPoint" />
            <Array as="points">
              <mxPoint x="434" y="-241" />
            </Array>
          </mxGeometry>
        </mxCell>
        <mxCell id="-BSTJAo-Vo8OihBomsTJ-40" value="" style="endArrow=none;html=1;rounded=0;" parent="1" edge="1">
          <mxGeometry width="50" height="50" relative="1" as="geometry">
            <mxPoint x="237" y="-311" as="sourcePoint" />
            <mxPoint x="364" y="-480" as="targetPoint" />
            <Array as="points">
              <mxPoint x="237" y="-311" />
            </Array>
          </mxGeometry>
        </mxCell>
        <mxCell id="-BSTJAo-Vo8OihBomsTJ-42" value="" style="endArrow=none;html=1;" parent="1" edge="1">
          <mxGeometry width="50" height="50" relative="1" as="geometry">
            <mxPoint x="248" y="-480" as="sourcePoint" />
            <mxPoint x="375" y="-313" as="targetPoint" />
          </mxGeometry>
        </mxCell>
        <mxCell id="-BSTJAo-Vo8OihBomsTJ-43" value="&lt;h1&gt;&lt;font color=&quot;#000000&quot; style=&quot;font-size: 12px ; font-weight: normal&quot;&gt;当Node1出故障时，Pod A1也会下线而且不会被重建。因为没有ReplicationController管理它&lt;/font&gt;&lt;/h1&gt;" style="text;html=1;strokeColor=none;fillColor=none;spacing=5;spacingTop=-20;whiteSpace=wrap;overflow=hidden;rounded=0;" parent="1" vertex="1">
          <mxGeometry x="167.5" y="-619" width="182" height="90" as="geometry" />
        </mxCell>
        <mxCell id="-BSTJAo-Vo8OihBomsTJ-44" value="" style="edgeStyle=elbowEdgeStyle;elbow=vertical;endArrow=classic;html=1;entryX=0.188;entryY=-0.003;entryDx=0;entryDy=0;entryPerimeter=0;exitX=0.338;exitY=0.978;exitDx=0;exitDy=0;exitPerimeter=0;" parent="1" source="-BSTJAo-Vo8OihBomsTJ-43" target="-BSTJAo-Vo8OihBomsTJ-11" edge="1">
          <mxGeometry width="50" height="50" relative="1" as="geometry">
            <mxPoint x="199" y="-479" as="sourcePoint" />
            <mxPoint x="249" y="-529" as="targetPoint" />
          </mxGeometry>
        </mxCell>
        <mxCell id="-BSTJAo-Vo8OihBomsTJ-45" value="&lt;h1&gt;&lt;font color=&quot;#000000&quot; style=&quot;font-size: 12px ; font-weight: normal&quot;&gt;RC注意到Pod B1下线了，然后创建一个新的实例Pod B2&lt;/font&gt;&lt;/h1&gt;" style="text;html=1;strokeColor=none;fillColor=none;spacing=5;spacingTop=-20;whiteSpace=wrap;overflow=hidden;rounded=0;" parent="1" vertex="1">
          <mxGeometry x="456" y="-283" width="182" height="90" as="geometry" />
        </mxCell>
      </root>
    </mxGraphModel>
  </diagram>
</mxfile>
